<svg width="900" height="560" viewBox="0 0 900 560" fill="none" xmlns="http://www.w3.org/2000/svg">
  <rect width="900" height="560" rx="28" fill="#EEF2FF"/>
  <rect x="28" y="28" width="844" height="504" rx="20" fill="#FFFFFF"/>
  <rect x="58" y="58" width="220" height="18" rx="9" fill="#C7D2FE"/>
  <rect x="58" y="92" width="160" height="10" rx="5" fill="#E2E8F0"/>
  <rect x="58" y="132" width="250" height="148" rx="14" fill="#F8FAFC"/>
  <rect x="74" y="154" width="124" height="10" rx="5" fill="#CBD5E1"/>
  <rect x="74" y="176" width="98" height="10" rx="5" fill="#E2E8F0"/>
  <rect x="74" y="204" width="218" height="54" rx="10" fill="#6366F1" fill-opacity="0.15"/>
  <rect x="328" y="132" width="250" height="148" rx="14" fill="#F8FAFC"/>
  <rect x="344" y="154" width="140" height="10" rx="5" fill="#CBD5E1"/>
  <rect x="344" y="176" width="110" height="10" rx="5" fill="#E2E8F0"/>
  <rect x="344" y="204" width="218" height="54" rx="10" fill="#22C55E" fill-opacity="0.15"/>
  <rect x="598" y="132" width="244" height="148" rx="14" fill="#F8FAFC"/>
  <rect x="614" y="154" width="130" height="10" rx="5" fill="#CBD5E1"/>
  <rect x="614" y="176" width="96" height="10" rx="5" fill="#E2E8F0"/>
  <rect x="614" y="204" width="212" height="54" rx="10" fill="#0EA5E9" fill-opacity="0.15"/>
  <rect x="58" y="302" width="784" height="200" rx="14" fill="#F8FAFC"/>
  <path d="M98 452C166 360 230 420 294 372C358 324 421 372 486 332C550 292 613 354 676 326C739 298 775 318 802 346" stroke="#4F46E5" stroke-width="6" stroke-linecap="round"/>
</svg>
